<svg width="16" height="17" viewBox="0 0 16 17" fill="none" xmlns="http://www.w3.org/2000/svg">
<path fill-rule="evenodd" clip-rule="evenodd" d="M11.2475 10.7043L8.42045 9.08665V5.42258C8.42045 5.09904 8.152 4.84021 7.81645 4.84021H7.76611C7.43055 4.84021 7.16211 5.09904 7.16211 5.42258V9.24033C7.16211 9.52343 7.31311 9.79035 7.57317 9.93594L10.6351 11.7073C10.9203 11.8691 11.2895 11.7882 11.4572 11.5132C11.6334 11.2301 11.5411 10.8661 11.2475 10.7043ZM15.7012 2.42187L13.1174 0.351222C12.765 0.0681255 12.2365 0.108568 11.9345 0.456372C11.6409 0.796088 11.6913 1.30566 12.0436 1.59685L14.619 3.66749C14.9713 3.95059 15.4998 3.91015 15.8018 3.56234C16.1038 3.22263 16.0535 2.71305 15.7012 2.42187ZM1.37275 3.66749L3.94815 1.59685C4.30887 1.30566 4.35921 0.796088 4.05721 0.456372C3.76359 0.108568 3.23509 0.0681255 2.88276 0.351222L0.298967 2.42187C-0.053368 2.71305 -0.103702 3.22263 0.1983 3.56234C0.491912 3.91015 1.02041 3.95059 1.37275 3.66749ZM8.00023 1.60482C3.83093 1.60482 0.450195 4.86447 0.450195 8.88444C0.450195 12.9044 3.83093 16.1641 8.00023 16.1641C12.1695 16.1641 15.5503 12.9044 15.5503 8.88444C15.5503 4.86447 12.1695 1.60482 8.00023 1.60482ZM8.00018 14.5464C4.76205 14.5464 2.12793 12.0066 2.12793 8.88444C2.12793 5.76229 4.76205 3.22251 8.00018 3.22251C11.2383 3.22251 13.8724 5.76229 13.8724 8.88444C13.8724 12.0066 11.2383 14.5464 8.00018 14.5464Z" fill="#444444"/>
</svg>
