<svg width="18" height="25" viewBox="0 0 18 25" fill="none" xmlns="http://www.w3.org/2000/svg">
<path d="M9.52943 20.2127C9.52943 20.2127 18 13.5487 18 8.72823C18 3.90775 14.2076 0 9.52943 0C4.85123 0 1.05885 3.90775 1.05885 8.72823C1.05885 13.5487 9.52943 20.2127 9.52943 20.2127ZM9.52943 1.06829C13.6238 1.06829 16.9429 4.47562 16.9429 8.67877C16.9429 12.8819 9.55079 18.9402 9.55079 18.9402C9.55079 18.9402 2.11597 12.8819 2.11597 8.67877C2.11597 4.47565 5.43505 1.06829 9.52943 1.06829ZM9.52943 12.7659C10.9913 12.7659 12.1765 11.5752 12.1765 10.1064V9.04254C12.1765 7.57372 10.9914 6.38296 9.52943 6.38296C8.06749 6.38296 6.88236 7.57369 6.88236 9.04254V10.1064C6.88236 11.5752 8.06749 12.7659 9.52943 12.7659ZM7.94118 9.04254C7.94118 8.16121 8.65224 7.44679 9.52943 7.44679C10.4066 7.44679 11.1177 8.16121 11.1177 9.04254V10.1064C11.1177 10.9877 10.4066 11.7021 9.52943 11.7021C8.65224 11.7021 7.94118 10.9877 7.94118 10.1064V9.04254ZM14.8235 20.7447L11.6471 20.7563V20.7447H2.11764C2.11764 20.7447 1.02573 20.7447 1.05882 19.6808C1.09191 18.617 2.11764 18.617 2.11764 18.617H3.70589C3.70589 18.617 4.21878 18.6004 4.23532 18.0851C4.25188 17.5698 3.70589 17.5532 3.70589 17.5532H2.11764C2.11764 17.5532 0 17.5199 0 19.6808C0 21.8417 2.11764 21.8085 2.11764 21.8085H5.82353V21.8332H14.8235C14.8235 21.8332 15.9154 21.8332 15.8824 22.8888C15.8493 23.9444 14.8235 23.9444 14.8235 23.9444H10.5882C10.5882 23.9444 10.0588 23.9527 10.0588 24.468C10.0588 24.9833 10.5882 25 10.5882 25H14.8235C14.8235 25 16.9412 25.0329 16.9412 22.8888C16.9412 20.7447 14.8235 20.7447 14.8235 20.7447Z" fill="#2264E6"/>
</svg>
