<svg width="12" height="18" viewBox="0 0 12 18" fill="none" xmlns="http://www.w3.org/2000/svg">
<path d="M5.99984 17.3346C5.80539 17.3346 5.63873 17.2791 5.49984 17.168C5.36095 17.0569 5.25678 16.911 5.18734 16.7305C4.92345 15.9527 4.59012 15.2235 4.18734 14.543C3.79845 13.8624 3.24984 13.0638 2.5415 12.1471C1.83317 11.2305 1.25678 10.3555 0.812337 9.52213C0.381782 8.6888 0.166504 7.68186 0.166504 6.5013C0.166504 4.8763 0.729004 3.5013 1.854 2.3763C2.99289 1.23741 4.37484 0.667969 5.99984 0.667969C7.62484 0.667969 8.99984 1.23741 10.1248 2.3763C11.2637 3.5013 11.8332 4.8763 11.8332 6.5013C11.8332 7.76519 11.5901 8.82075 11.104 9.66797C10.6318 10.5013 10.0832 11.3277 9.45817 12.1471C8.70817 13.1471 8.13873 13.9805 7.74984 14.6471C7.37484 15.2999 7.06234 15.9944 6.81234 16.7305C6.74289 16.9249 6.63178 17.0777 6.479 17.1888C6.34012 17.286 6.18039 17.3346 5.99984 17.3346ZM5.99984 14.3555C6.23595 13.8832 6.49984 13.418 6.7915 12.9596C7.09706 12.5013 7.5415 11.8902 8.12484 11.1263C8.72206 10.3485 9.20817 9.63325 9.58317 8.98047C9.97206 8.3138 10.1665 7.48741 10.1665 6.5013C10.1665 5.34852 9.75678 4.36936 8.93734 3.5638C8.13178 2.74436 7.15262 2.33464 5.99984 2.33464C4.84706 2.33464 3.86095 2.74436 3.0415 3.5638C2.23595 4.36936 1.83317 5.34852 1.83317 6.5013C1.83317 7.48741 2.02067 8.3138 2.39567 8.98047C2.78456 9.63325 3.27762 10.3485 3.87484 11.1263C4.45817 11.8902 4.89567 12.5013 5.18734 12.9596C5.49289 13.418 5.76373 13.8832 5.99984 14.3555ZM5.99984 8.58464C6.58317 8.58464 7.07623 8.38325 7.479 7.98047C7.88178 7.57769 8.08317 7.08463 8.08317 6.5013C8.08317 5.91797 7.88178 5.42491 7.479 5.02213C7.07623 4.61936 6.58317 4.41797 5.99984 4.41797C5.4165 4.41797 4.92345 4.61936 4.52067 5.02213C4.11789 5.42491 3.9165 5.91797 3.9165 6.5013C3.9165 7.08463 4.11789 7.57769 4.52067 7.98047C4.92345 8.38325 5.4165 8.58464 5.99984 8.58464Z" fill="#6D6D6D"/>
</svg>
