<svg width="55" height="36" viewBox="0 0 55 36" fill="none" xmlns="http://www.w3.org/2000/svg">
<path d="M3.64034 26.932H5.82434C6.79034 26.932 7.19634 26.33 7.19634 25.476V24.776C7.19634 23.936 6.79034 23.446 5.82434 23.446H3.64034V26.932ZM5.82434 28.192H3.64034V31.496C3.64034 31.832 3.44434 32.14 2.98234 32.14C2.52034 32.14 2.32434 31.832 2.32434 31.496V22.844C2.32434 22.508 2.52034 22.2 2.96834 22.2H5.82434C7.63034 22.2 8.51234 23.208 8.51234 24.776V25.476C8.51234 27.016 7.63034 28.192 5.82434 28.192ZM10.8245 24.72H12.6305C14.0165 24.72 14.8705 25.602 14.8705 26.876V31.356C14.8705 31.692 14.6745 32 14.2265 32H11.6505C10.3625 32 9.53653 31.398 9.53653 30.11V29.032C9.53653 27.744 10.3625 27.156 11.6505 27.156H13.6105V26.89C13.6105 26.19 13.2045 25.896 12.6305 25.896H10.8245C10.4745 25.896 10.1945 25.728 10.1945 25.308C10.1945 24.888 10.4745 24.72 10.8245 24.72ZM11.6505 30.824H13.6105V28.332H11.6505C11.0765 28.332 10.7965 28.612 10.7965 29.06V30.11C10.7965 30.53 11.0765 30.824 11.6505 30.824ZM18.1012 25.224V29.452C18.1012 30.292 18.4932 30.796 19.4312 30.796H21.1112V25.224C21.1112 24.888 21.2652 24.58 21.7412 24.58C22.1892 24.58 22.3712 24.888 22.3712 25.224V32.77C22.3712 34.324 21.4892 35.5 19.7392 35.5H18.1712C17.8492 35.5 17.5552 35.346 17.5552 34.898C17.5552 34.478 17.8492 34.296 18.1712 34.296H19.7392C20.6772 34.296 21.1112 33.666 21.1112 32.77V32H19.4312C17.6812 32 16.8412 31.02 16.8412 29.452V25.224C16.8412 24.888 17.0092 24.58 17.4712 24.58C17.9472 24.58 18.1012 24.888 18.1012 25.224ZM31.2208 31.496V27.268C31.2208 26.428 30.8288 25.924 29.8908 25.924H29.0928V31.496C29.0928 31.832 28.9248 32.14 28.4628 32.14C28.0008 32.14 27.8328 31.832 27.8328 31.496V25.924H25.7048V31.496C25.7048 31.832 25.5368 32.14 25.0748 32.14C24.6128 32.14 24.4448 31.832 24.4448 31.496V25.364C24.4448 25.014 24.6268 24.72 25.0748 24.72H29.8908C31.6408 24.72 32.4808 25.7 32.4808 27.268V31.496C32.4808 31.832 32.3128 32.14 31.8508 32.14C31.3748 32.14 31.2208 31.832 31.2208 31.496ZM39.8843 27.128V28.29C39.8843 28.71 39.6183 28.906 39.2683 28.906H35.5583V29.256C35.5583 30.152 35.9783 30.824 36.9163 30.824H38.7363C39.0863 30.824 39.3523 30.992 39.3523 31.412C39.3523 31.832 39.0863 32 38.7363 32H36.9163C35.1663 32 34.2983 30.824 34.2983 29.256V27.128C34.2983 25.588 35.1243 24.58 36.8743 24.58H37.3083C39.0583 24.58 39.8843 25.588 39.8843 27.128ZM35.5583 27.73H38.6243V27.128C38.6243 26.302 38.2463 25.756 37.3083 25.756H36.8743C35.9363 25.756 35.5583 26.302 35.5583 27.128V27.73ZM45.914 31.496V27.268C45.914 26.428 45.522 25.924 44.584 25.924H42.904V31.496C42.904 31.832 42.75 32.14 42.274 32.14C41.826 32.14 41.644 31.832 41.644 31.496V25.364C41.644 25.014 41.826 24.72 42.274 24.72H44.584C46.334 24.72 47.174 25.7 47.174 27.268V31.496C47.174 31.832 47.006 32.14 46.544 32.14C46.068 32.14 45.914 31.832 45.914 31.496ZM52.1752 30.796H52.7912C53.1412 30.796 53.4072 30.978 53.4072 31.398C53.4072 31.818 53.1412 32 52.7912 32H52.1752C50.4252 32 49.5852 31.02 49.5852 29.452V25.924H48.6752C48.3532 25.924 48.0592 25.77 48.0592 25.322C48.0592 24.874 48.3532 24.72 48.6752 24.72H49.5852V23.404C49.5852 23.068 49.7672 22.76 50.2152 22.76C50.6632 22.76 50.8452 23.068 50.8452 23.404V24.72H52.6932C53.0152 24.72 53.3092 24.902 53.3092 25.322C53.3092 25.742 53.0152 25.924 52.6932 25.924H50.8452V29.452C50.8452 30.292 51.2372 30.796 52.1752 30.796Z" fill="#4B5563"/>
<path d="M36.7588 0.900391C38.0498 0.900436 39.0996 1.95022 39.0996 3.24121V14.7646C39.0996 16.0557 38.0499 17.1064 36.7588 17.1064H17.2412C15.9501 17.1064 14.9004 16.0557 14.9004 14.7646V3.24121C14.9004 1.95027 15.9502 0.900435 17.2412 0.900391H36.7588ZM16.0771 14.7646C16.0771 15.4065 16.5994 15.9287 17.2412 15.9287H36.7588C37.4006 15.9287 37.9229 15.4065 37.9229 14.7646V9.1123H16.0771V14.7646ZM17.2412 2.07715C16.5994 2.07719 16.0772 2.59946 16.0771 3.24121V4.31055H20.9248C21.2498 4.31055 21.5137 4.57442 21.5137 4.89941C21.5136 5.22437 21.2498 5.48828 20.9248 5.48828H16.0771V7.93457H37.9229V5.48828H22.5537C22.2287 5.48828 21.9649 5.22444 21.9648 4.89941C21.9648 4.57443 22.2287 4.31055 22.5537 4.31055H37.9229V3.24121C37.9228 2.59941 37.4006 2.07719 36.7588 2.07715H17.2412Z" fill="#5856D6" stroke="#5856D6" stroke-width="0.2"/>
<path d="M25.0802 10.2734H17.8323C17.5624 10.2734 17.3438 10.4922 17.3438 10.762C17.3438 11.0318 17.5625 11.2505 17.8323 11.2505H25.0802C25.3501 11.2505 25.5688 11.0317 25.5688 10.762C25.5688 10.4922 25.3501 10.2734 25.0802 10.2734Z" fill="#5856D6"/>
<path d="M21.9892 12.2969H17.8323C17.5624 12.2969 17.3438 12.5156 17.3438 12.7854C17.3438 13.0552 17.5625 13.2739 17.8323 13.2739H21.9892C22.259 13.2739 22.4777 13.0552 22.4777 12.7854C22.4777 12.5156 22.259 12.2969 21.9892 12.2969Z" fill="#5856D6"/>
</svg>
