<svg width="12" height="14" viewBox="0 0 12 14" fill="none" xmlns="http://www.w3.org/2000/svg">
<path d="M5.25 7.7H6.75V4.2H5.25V7.7ZM6 9.8C6.2125 9.8 6.39063 9.73292 6.53438 9.59875C6.67813 9.46458 6.75 9.29833 6.75 9.1C6.75 8.90167 6.67813 8.73542 6.53438 8.60125C6.39063 8.46708 6.2125 8.4 6 8.4C5.7875 8.4 5.60938 8.46708 5.46563 8.60125C5.32188 8.73542 5.25 8.90167 5.25 9.1C5.25 9.29833 5.32188 9.46458 5.46563 9.59875C5.60938 9.73292 5.7875 9.8 6 9.8ZM0 11.9V10.5H1.5V5.6C1.5 4.63167 1.8125 3.77125 2.4375 3.01875C3.0625 2.26625 3.875 1.77333 4.875 1.54V1.05C4.875 0.758333 4.98438 0.510417 5.20312 0.30625C5.42188 0.102083 5.6875 0 6 0C6.3125 0 6.57813 0.102083 6.79688 0.30625C7.01563 0.510417 7.125 0.758333 7.125 1.05V1.54C8.125 1.77333 8.9375 2.26625 9.5625 3.01875C10.1875 3.77125 10.5 4.63167 10.5 5.6V10.5H12V11.9H0ZM6 14C5.5875 14 5.23438 13.8629 4.94063 13.5887C4.64688 13.3146 4.5 12.985 4.5 12.6H7.5C7.5 12.985 7.35313 13.3146 7.05938 13.5887C6.76563 13.8629 6.4125 14 6 14ZM3 10.5H9V5.6C9 4.83 8.70625 4.17083 8.11875 3.6225C7.53125 3.07417 6.825 2.8 6 2.8C5.175 2.8 4.46875 3.07417 3.88125 3.6225C3.29375 4.17083 3 4.83 3 5.6V10.5Z" fill="#E30000"/>
</svg>
