<svg width="14" height="14" viewBox="0 0 14 14" fill="none" xmlns="http://www.w3.org/2000/svg">
<path d="M5.68164 0.688477C8.55766 0.688688 10.8887 3.02042 10.8887 5.89648C10.8886 7.02157 10.5327 8.06206 9.92676 8.91309L9.69434 9.23926L9.97754 9.52246L12.9609 12.5068C13.1362 12.6821 13.1413 12.9837 12.9551 13.1699C12.7655 13.3595 12.4714 13.3552 12.292 13.1758L9.30762 10.1924L9.02441 9.90918L8.69824 10.1416C7.84722 10.7476 6.80672 11.1034 5.68164 11.1035C2.80558 11.1035 0.473844 8.7725 0.473633 5.89648C0.473633 3.02029 2.80545 0.688477 5.68164 0.688477ZM5.68164 1.16211C3.06692 1.16211 0.947266 3.28176 0.947266 5.89648C0.947477 8.51103 3.06705 10.6309 5.68164 10.6309C8.29605 10.6306 10.4158 8.5109 10.416 5.89648C10.416 3.28189 8.29618 1.16232 5.68164 1.16211Z" fill="#1C2E45" fill-opacity="0.6" stroke="#111827" stroke-width="0.946875"/>
</svg>
